<?xml version="1.0" standalone="no"?>
<!DOCTYPE svg PUBLIC "-//W3C//DTD SVG 20010904//EN"
 "http://www.w3.org/TR/2001/REC-SVG-20010904/DTD/svg10.dtd">
<svg version="1.0" xmlns="http://www.w3.org/2000/svg"
 width="512.000000pt" height="512.000000pt" viewBox="0 0 512.000000 512.000000"
 preserveAspectRatio="xMidYMid meet">
<metadata>
Created by potrace 1.11, written by Peter Selinger 2001-2013
</metadata>
<g transform="translate(0.000000,512.000000) scale(0.100000,-0.100000)"
fill="#000000" stroke="none">
<path d="M2445 4925 c-5 -2 -22 -6 -37 -9 -15 -3 -39 -22 -54 -42 -23 -29 -28
-47 -29 -98 -1 -34 -5 -67 -8 -73 -4 -6 -26 -14 -50 -18 -54 -9 -153 -56 -214
-101 -132 -98 -235 -265 -287 -466 -39 -150 -47 -257 -32 -453 13 -174 15
-215 22 -430 10 -315 5 -763 -11 -975 -2 -25 -6 -85 -10 -135 -3 -49 -8 -106
-10 -125 -2 -19 -7 -69 -10 -110 -4 -41 -9 -83 -10 -92 -2 -9 -7 -48 -10 -85
-4 -37 -9 -70 -10 -73 -2 -3 -6 -29 -10 -59 -4 -30 -9 -63 -11 -75 -2 -12 -7
-37 -10 -56 -3 -19 -16 -89 -29 -155 -38 -190 -44 -251 -40 -400 4 -198 19
-267 83 -390 68 -130 221 -252 350 -280 18 -4 36 -13 39 -21 5 -14 44 -20 55
-8 4 3 49 6 101 6 269 0 487 123 717 404 38 48 123 186 170 278 58 115 110
230 110 243 0 5 9 25 20 45 11 20 28 70 39 110 11 40 29 105 41 143 20 68 68
265 76 315 2 14 9 45 14 70 5 25 12 56 14 70 2 14 9 52 15 85 6 33 13 78 16
100 4 22 8 51 10 65 3 14 7 50 11 80 3 30 8 64 10 75 2 10 6 51 10 90 3 38 7
80 9 91 24 153 25 765 1 914 -3 14 -7 48 -10 75 -35 299 -150 628 -286 820
-28 39 -58 87 -68 107 -9 21 -23 38 -31 38 -7 0 -34 21 -61 46 -26 25 -72 64
-101 86 -64 48 -214 125 -260 133 -46 8 -68 22 -65 42 9 53 -50 165 -94 182
-36 14 -64 20 -75 16z"/>
</g>
</svg>
