<?xml version="1.0" encoding="utf-8"?>
<!-- Generator: Adobe Illustrator 16.0.4, SVG Export Plug-In . SVG Version: 6.00 Build 0)  -->
<!DOCTYPE svg PUBLIC "-//W3C//DTD SVG 1.1//EN" "http://www.w3.org/Graphics/SVG/1.1/DTD/svg11.dtd">
<svg version="1.1" id="Layer_1" xmlns="http://www.w3.org/2000/svg" xmlns:xlink="http://www.w3.org/1999/xlink" x="0px" y="0px"
	 width="1024px" height="768px" viewBox="0 0 1024 768" enable-background="new 0 0 1024 768" xml:space="preserve">
<ellipse id="shadow_1_" transform="matrix(-0.996 0.0898 -0.0898 -0.996 1381.4985 1221.2925)" opacity="0.1" fill="#2D2D2D" cx="663.275" cy="641.725" rx="311.109" ry="63.75"/>
<g id="cucumber">
	<g>
		<path fill="#8BC53F" d="M485.356,96.895c0,0-13.134-36.951,11.391-40.511c24.525-3.56,22.437,35.602,22.437,35.602L485.356,96.895
			z"/>
		<g>
			<path fill="#231F20" d="M486.572,96.838c-3.035-8.624-4.715-18.725-2.579-27.709c1.96-8.248,9.217-12.863,17.55-12.237
				c7.333,0.55,11.502,7.388,13.679,13.628c1.866,5.349,2.519,11.123,2.724,16.757c0.051,1.406,0.055,2.815,0.01,4.221
				c-0.023,0.745,0.535-0.113,0.508-0.109c-0.67,0.097-1.34,0.194-2.009,0.292c-10.558,1.532-21.115,3.064-31.673,4.596
				c-1.613,0.234,0.238,1.369,1.149,1.236c11.276-1.637,22.552-3.273,33.828-4.909c0.241-0.035,0.654-0.2,0.669-0.499
				c0.738-14.678-3.221-37.084-21.915-36.578c-21.672,0.587-19.483,26.905-14.374,41.424
				C484.426,97.764,486.899,97.766,486.572,96.838z"/>
		</g>
	</g>
	<path opacity="0.4" fill="#D6DE23" d="M488.161,67.992c0,0,8.463-14.181,20.331-2.951l11.696,26.002l-18.031,2.616
		C502.156,93.659,506.738,67.455,488.161,67.992z"/>
	<path fill="#8BC53F" d="M511.447,86.559c-59.711-3.51-86.963,30.971-99.39,64.139c-11.01,29.383-10.389,57.736-10.389,57.736
		s17.253,190.937-13.506,339.517c-0.199,0.961-0.39,1.926-0.593,2.885c-9.818,46.324-5.956,77.455,4.03,98.377
		c0,0.002,0,0.002,0.001,0.002c22.128,46.359,74.324,42.539,74.324,42.539s136.921,16.42,169.803-291.648
		S511.447,86.559,511.447,86.559z"/>
	<path opacity="0.4" fill="#D6DE23" d="M569.046,131.435c-69.768-74.591-139.458-0.292-139.458-0.292l-17.531,19.555
		c-11.01,29.383-10.389,57.736-10.389,57.736s17.253,190.937-13.506,339.517c-0.199,0.961-0.39,1.926-0.593,2.885
		c-9.818,46.324-5.956,77.455,4.03,98.377c0,0.002,0,0.002,0.001,0.002c66.002,91.279,146.707-0.818,146.707-0.818
		C622.742,553.463,638.815,206.028,569.046,131.435z"/>
	
		<path opacity="0.69" fill="none" stroke="#D6DE23" stroke-width="3" stroke-linecap="round" stroke-linejoin="round" stroke-miterlimit="10" d="
		M466.257,92.963c0,0-41.225,36.427-31.348,194.506c9.878,158.08-15.17,296.387-15.17,296.387s-18.444,76.131,6.961,97.986"/>
	
		<path opacity="0.69" fill="none" stroke="#D6DE23" stroke-width="3" stroke-linecap="round" stroke-linejoin="round" stroke-miterlimit="10" d="
		M486.215,90.402c0,0,2.477,85.356,4.87,105.482c2.392,20.125,7.669,284.783-12.21,388.996
		c-19.882,104.219-30.309,107.326-30.309,107.326"/>
	
		<path opacity="0.69" fill="none" stroke="#D6DE23" stroke-width="3" stroke-linecap="round" stroke-linejoin="round" stroke-miterlimit="10" d="
		M531.629,91.602c0.635,4.315,116.987,272.105-23.271,588.369"/>
	
		<path opacity="0.69" fill="none" stroke="#D6DE23" stroke-width="3" stroke-linecap="round" stroke-linejoin="round" stroke-miterlimit="10" d="
		M585.417,127.249c0,0,72.764,198.775,16.926,430.335"/>
	<polygon fill="#8BC53F" points="611.018,660.445 611.017,660.447 611.018,660.441 	"/>
	<g>
		<g>
			<path fill="#231F20" d="M510.489,84.323c-22.92-1.214-45.914,2.942-64.957,16.322c-14.891,10.462-25.547,25.877-32.697,42.411
				c-8.494,19.641-12.666,41.661-12.835,63.04c-0.036,4.506,0.643,9.075,0.963,13.565c6.019,84.379,5.999,169.923-3.204,254.048
				c-2.921,26.705-7.296,53.104-12.625,79.424c-4.86,24.004-7.047,49.17-2.327,73.371c3.586,18.387,12.321,35.721,26.528,48.154
				c12.05,10.545,27.479,16.426,43.196,18.605c16.769,2.326,33.871,0.416,49.626-5.799c41.322-16.301,69.224-55.686,87.727-94.328
				c17.87-37.32,28.84-77.785,36.713-118.275c10.322-53.088,15.957-107.686,15.258-161.792
				c-0.809-62.609-10.857-132.342-51.81-182.405c-17.984-21.984-43-39.711-71.237-45.209
				C516.081,84.923,513.273,84.423,510.489,84.323c-1.75-0.063,0.217,4.412,1.917,4.473c17.684,0.639,35.997,9.78,50.15,19.739
				c42.351,29.797,61.54,82.375,69.923,131.463c7.94,46.495,7.301,94.262,3.29,141.109c-4.416,51.593-12.639,103.373-27.755,152.978
				c-15.743,51.66-41.172,108.004-88.134,138.549c-15.492,10.078-35.672,18.596-54.647,16.912
				c-5.368-0.477-10.712-0.174-16.111-0.967c-17.794-2.613-34.756-10.822-46.576-24.555c-13.613-15.814-18.138-37.201-18.918-57.523
				c-1.067-27.822,6.226-54.682,10.833-81.875c15.606-92.094,16.277-187.133,11.239-280.213
				c-0.978-18.076-3.272-35.614-1.156-53.664c5.068-43.231,26.596-86.723,71.493-98.796c11.818-3.178,24.2-3.801,36.37-3.157
				C514.137,88.887,512.189,84.413,510.489,84.323z"/>
		</g>
	</g>
	
		<ellipse transform="matrix(-0.9987 -0.0511 0.0511 -0.9987 862.6913 662.3251)" opacity="0.51" fill="#D6DE23" cx="439.819" cy="320.126" rx="16.408" ry="5.342"/>
	
		<ellipse transform="matrix(-0.9987 -0.0511 0.0511 -0.9987 939.4856 668.2236)" opacity="0.51" fill="#D6DE23" cx="478.289" cy="322.096" rx="16.408" ry="5.34"/>
	
		<ellipse id="right_eye" transform="matrix(-0.9987 -0.0511 0.0511 -0.9987 867.8216 632.2902)" fill="#231F20" cx="441.994" cy="305.05" rx="10.023" ry="15.81"/>
	
		<ellipse id="left_eye" transform="matrix(-0.9987 -0.0511 0.0511 -0.9987 941.8067 637.9882)" fill="#231F20" cx="479.063" cy="306.948" rx="10.023" ry="15.809"/>
	<g>
		<g>
			<path fill="#231F20" d="M449.135,346.955c-0.062,6.63-4.288,12.262-10.107,15.073c-0.809,0.391-0.21,1.525,0.578,1.371
				c7.51-1.479,19.585-3.727,26.121,1.29c0.767,0.589,1.513-0.715,0.757-1.295c-6.949-5.334-19.318-3.009-27.276-1.442
				c0.192,0.457,0.385,0.914,0.578,1.371c6.293-3.039,10.784-9.216,10.851-16.368C450.644,345.987,449.144,345.988,449.135,346.955
				L449.135,346.955z"/>
		</g>
	</g>
	<g>
		<g>
			<path fill="#231F20" d="M451.878,361.604c1.951,3.023,1.444,6.905-0.208,9.911c-0.466,0.849,0.829,1.605,1.295,0.758
				c1.901-3.46,2.451-7.949,0.208-11.425C452.651,360.037,451.352,360.788,451.878,361.604L451.878,361.604z"/>
		</g>
	</g>
</g>
</svg>
